<svg width="162" height="41" viewBox="0 0 162 41" fill="none" xmlns="http://www.w3.org/2000/svg">
<path d="M64.3145 7.96825C64.3145 10.6583 66.4888 12.841 69.1788 12.841C70.0848 12.841 70.9267 12.6096 71.6236 12.1803V10.1621C71.066 10.7837 70.213 11.1712 69.2179 11.1712C67.431 11.1712 66.0595 9.77462 66.0595 7.96546C66.0595 6.1563 67.431 4.75971 69.2179 4.75971C70.213 4.75971 71.0688 5.14718 71.6236 5.76882V3.75059C70.9239 3.32409 70.0848 3.08993 69.1788 3.08993C66.4888 3.08993 64.3145 5.27542 64.3145 7.96267V7.96825Z" fill="#112843"/>
<path d="M77.3577 6.01692H75.6517V12.6459H77.3577V6.01692Z" fill="#112843"/>
<path d="M78.2497 9.35648C78.2497 11.358 79.8749 12.841 81.7733 12.841C82.3587 12.841 82.905 12.71 83.3204 12.4758V10.8367C82.9162 11.1629 82.4897 11.344 81.8764 11.344C80.8115 11.344 79.8888 10.5245 79.8888 9.35369C79.8888 8.18289 80.8115 7.37727 81.8764 7.37727C82.4869 7.37727 82.9162 7.55847 83.3204 7.87068V6.23157C82.905 5.99741 82.3587 5.86639 81.7733 5.86639C79.8749 5.86639 78.2497 7.3494 78.2497 9.3509V9.35648Z" fill="#112843"/>
<path d="M99.8927 5.87197C98.0752 5.87197 96.4807 7.36612 96.4807 9.37041C96.4807 11.3747 98.078 12.841 100.166 12.841C100.997 12.841 101.905 12.6319 102.566 12.1775V10.6694C101.995 11.1378 101.153 11.4109 100.372 11.4109C99.1512 11.4109 98.2703 10.8255 98.0892 9.79971H103.048C103.062 9.65754 103.062 9.52652 103.062 9.39551C103.062 7.41909 101.997 5.87197 99.8955 5.87197H99.8927ZM98.1393 8.654C98.3735 7.79542 99.0342 7.24904 99.8649 7.24904C100.838 7.24904 101.37 7.95152 101.448 8.654H98.1393Z" fill="#112843"/>
<path d="M72.5992 12.6459H74.3053V2.89758C73.6725 3.09272 73.2822 3.1401 72.5992 3.1401V12.6459Z" fill="#112843"/>
<path d="M90.3312 6.01692H88.313L86.0021 8.65958V2.89758C85.3693 3.09272 84.979 3.1401 84.296 3.1401V12.6431H86.0021V9.63524L88.405 12.6431H90.4372L87.5241 9.09444L90.334 6.01413L90.3312 6.01692Z" fill="#112843"/>
<path d="M112.328 6.02528H110.617V12.6459H112.323V9.42617C112.323 8.14108 113.095 7.60865 114.082 7.60865C114.213 7.60865 114.324 7.61143 114.466 7.62537V5.91378C113.443 5.82179 112.693 6.41555 112.328 7.05112V6.02528Z" fill="#112843"/>
<path d="M118.904 5.87197C118.057 5.87197 117.368 6.27338 117.014 6.80303V5.9305H115.294V12.6486H117V8.86028C117 8.07139 117.497 7.41351 118.316 7.41351C119.136 7.41351 119.584 8.07418 119.584 8.84913V12.6514H121.338V8.39754C121.338 6.92289 120.44 5.87754 118.901 5.87754L118.904 5.87197Z" fill="#112843"/>
<path d="M106.53 5.87197C105.66 5.87197 104.796 6.12285 104.278 6.40719V7.91807C104.81 7.60586 105.465 7.35219 106.168 7.35219C107.166 7.35219 107.737 7.87347 107.737 8.54807V9.00803C107.464 8.7209 106.842 8.45887 106.09 8.45887C104.701 8.45887 103.547 9.33139 103.547 10.6165C103.547 11.9824 104.701 12.841 106.037 12.841C106.867 12.841 107.492 12.5204 107.737 12.2082V12.6459H109.393V8.47002C109.393 6.84484 108.303 5.86918 106.527 5.86918L106.53 5.87197ZM106.427 11.5671C105.752 11.5671 105.117 11.2298 105.117 10.6193C105.117 10.0088 105.752 9.65754 106.427 9.65754C107.102 9.65754 107.762 10.0088 107.762 10.6193C107.762 11.2298 107.088 11.5671 106.427 11.5671Z" fill="#112843"/>
<path d="M76.4991 4.92696C77.0371 4.92696 77.4748 4.48931 77.4748 3.9513C77.4748 3.41329 77.0371 2.97564 76.4991 2.97564C75.9611 2.97564 75.5234 3.41329 75.5234 3.9513C75.5234 4.48931 75.9611 4.92696 76.4991 4.92696Z" fill="#112843"/>
<path d="M92.6784 3.38541C92.0456 3.58055 91.6553 3.62794 90.9724 3.62794V12.6459H96.333V11.1824H92.6784V3.38263V3.38541Z" fill="#112843"/>
<path d="M64.3145 16.5672H67.2833V27.1434C67.2833 29.5798 68.6046 30.9234 71.0187 30.9234C73.4327 30.9234 74.7764 29.5547 74.7764 27.1434V16.5672H77.7452V27.3302C77.7452 31.297 75.1471 33.8002 71.0187 33.8002C66.8902 33.8002 64.3145 31.3193 64.3145 27.3302V16.5672Z" fill="#112843"/>
<path d="M80.9676 22.0644H83.588L83.8194 23.5502C84.5386 22.3905 85.9296 21.7187 87.4851 21.7187C90.3619 21.7187 91.8449 23.5056 91.8449 26.4744V33.5243H89.0155V27.1462C89.0155 25.22 88.0649 24.2945 86.6042 24.2945C84.8647 24.2945 83.7971 25.5015 83.7971 27.3553V33.5243H80.9676V22.0644Z" fill="#112843"/>
<path d="M94.3036 18.0502C94.3036 17.0997 95.0702 16.3582 96.0431 16.3582C97.0159 16.3582 97.7351 17.0997 97.7351 18.0502C97.7351 19.0008 96.9685 19.7674 96.0431 19.7674C95.0702 19.7674 94.3036 19.0008 94.3036 18.0502ZM94.6297 22.0616H97.4592V33.5187H94.6297V22.0616Z" fill="#112843"/>
<path d="M99.0788 22.0644H102.095L104.091 27.3302C104.579 28.6989 104.972 29.8809 105.111 30.5081C105.273 29.7889 105.691 28.5818 106.179 27.3302L108.267 22.0644H111.188L106.41 33.5215H103.625L99.0788 22.0644Z" fill="#112843"/>
<path d="M111.581 27.7929C111.581 24.1969 113.923 21.7159 117.287 21.7159C120.652 21.7159 122.902 24.0129 122.902 27.5839V28.4424L114.274 28.4647C114.483 30.483 115.551 31.5032 117.43 31.5032C118.985 31.5032 120.005 30.9011 120.329 29.8112H122.949C122.461 32.3172 120.373 33.8225 117.382 33.8225C113.973 33.8225 111.584 31.3416 111.584 27.7929H111.581ZM114.341 26.6556H120.092C120.092 25.0778 119.002 24.0352 117.31 24.0352C115.618 24.0352 114.62 24.9412 114.341 26.6556Z" fill="#112843"/>
<path d="M132.363 24.6374H131.32C129.28 24.6374 128.003 25.7273 128.003 27.9546V33.5215H125.174V22.0867H127.841L128.003 23.7565C128.491 22.6191 129.581 21.8553 131.111 21.8553C131.504 21.8553 131.9 21.9027 132.363 22.017V24.6374Z" fill="#112843"/>
<path d="M136.095 30.0425C136.118 31.0405 136.862 31.6649 138.161 31.6649C139.46 31.6649 140.202 31.1325 140.202 30.2962C140.202 29.7164 139.901 29.2982 138.88 29.0669L136.815 28.579C134.749 28.1163 133.754 27.1406 133.754 25.3092C133.754 23.0596 135.655 21.7132 138.3 21.7132C140.946 21.7132 142.616 23.1989 142.638 25.4235H139.948C139.926 24.4506 139.276 23.8234 138.186 23.8234C137.096 23.8234 136.424 24.3335 136.424 25.1921C136.424 25.8416 136.935 26.2597 137.91 26.4911L139.976 26.979C141.902 27.4194 142.875 28.3003 142.875 30.0648C142.875 32.3841 140.904 33.8225 138.075 33.8225C135.245 33.8225 133.414 32.2921 133.414 30.0425H136.104H136.095Z" fill="#112843"/>
<path d="M144.352 27.7929C144.352 24.1969 146.694 21.7159 150.059 21.7159C153.423 21.7159 155.673 24.0129 155.673 27.5839V28.4424L147.045 28.4647C147.254 30.483 148.322 31.5032 150.201 31.5032C151.756 31.5032 152.777 30.9011 153.1 29.8112H155.72C155.232 32.3172 153.144 33.8225 150.153 33.8225C146.744 33.8225 144.355 31.3416 144.355 27.7929H144.352ZM147.112 26.6556H152.863C152.863 25.0778 151.773 24.0352 150.081 24.0352C148.389 24.0352 147.391 24.9412 147.112 26.6556Z" fill="#112843"/>
<path fill-rule="evenodd" clip-rule="evenodd" d="M51.7939 3.26429C54.8631 3.79115 56.1008 5.39961 56.6109 6.65682H56.6165C58.3448 10.9915 53.5166 14.9555 49.7255 17.562C48.7749 18.217 47.7296 18.8805 46.6229 19.5412C45.8117 32.0296 36.1972 40.1416 28.8435 40.1416C28.8435 37.6774 26.8141 35.7372 24.4279 35.1295C21.7267 34.4437 19.2736 33.1391 17.2247 31.3774C12.8119 32.392 8.74759 32.8827 5.88193 32.392C2.81277 31.8624 1.57786 30.2539 1.06773 28.9995C-0.668952 24.6648 4.16756 20.7036 7.95034 18.0972C8.44096 17.7627 8.95667 17.4309 9.48074 17.0964C9.47678 17.1826 9.47105 17.2671 9.46532 17.3516L9.46532 17.3517L9.46531 17.3517L9.46531 17.3517C9.45492 17.505 9.4445 17.6587 9.4445 17.824C9.44171 19.2094 9.58946 20.5921 9.88216 21.9441C6.8353 24.1212 5.21291 25.9945 5.67565 27.129C6.20251 28.4532 9.34136 28.573 13.9716 27.7033C13.9679 27.6977 13.9641 27.6921 13.9604 27.6865C25.8911 25.3364 34.1422 21.746 41.9234 17.3097C42.0167 17.259 42.1095 17.2084 42.2017 17.1577C42.2016 17.1554 42.2015 17.1531 42.2014 17.1507C43.6061 16.3451 44.9967 15.512 46.3922 14.6538C46.3929 14.6577 46.3936 14.6617 46.3943 14.6656C46.4984 14.5976 46.6013 14.5298 46.703 14.4623C46.7131 14.456 46.7232 14.4498 46.7333 14.4436L46.7327 14.4425C50.466 11.957 52.5146 9.78823 52.003 8.51058C51.543 7.36208 49.076 7.13629 45.3712 7.67987C44.5182 6.29164 43.4952 5.01491 42.3272 3.88035C46.0012 3.14721 49.3408 2.84336 51.7939 3.26429ZM46.0542 13.1557C43.9958 5.57573 37.0728 0 28.8407 0C18.9865 0 11 7.98652 11 17.8407C11 20.9312 11.785 23.8394 13.1684 26.3736C14.7733 26.065 16.3116 25.7333 17.7911 25.3796C16.3202 23.2313 15.4574 20.6365 15.4574 17.8435V17.8407C15.4574 10.4619 21.4591 4.46018 28.8379 4.46018C35.6546 4.46018 40.9773 9.26835 42.03 15.5703C43.3769 14.7897 44.7127 13.984 46.0542 13.1557ZM25.8384 30.8784C26.0698 30.9313 26.304 30.9787 26.5409 31.0205L26.5353 31.0038C26.5437 31.0066 26.5493 31.0066 26.5549 31.0066C27.3075 31.1376 28.0713 31.2045 28.8323 31.2045C28.8658 31.2045 28.8992 31.2038 28.9327 31.2031C28.9661 31.2024 28.9996 31.2017 29.033 31.2017C29.1557 31.2017 29.2756 31.1989 29.3982 31.1934C29.5192 31.1881 29.6376 31.1804 29.7583 31.1725L29.7584 31.1725L29.7801 31.1711L29.7876 31.1707C29.8383 31.168 29.8913 31.1652 29.9418 31.1599C33.0054 30.9007 35.8543 29.5877 38.0342 27.5305C38.0593 27.5054 38.0872 27.4775 38.1151 27.4524C38.2099 27.3632 38.3019 27.2712 38.3911 27.1792C38.4231 27.1458 38.4552 27.1116 38.4872 27.0775C38.5193 27.0433 38.5513 27.0092 38.5834 26.9757L38.5913 26.9675L38.5915 26.9672C38.6476 26.9085 38.706 26.8473 38.7618 26.7862C38.8928 26.6412 39.0211 26.4962 39.1437 26.3457C39.1526 26.3368 39.1604 26.3268 39.1685 26.3163L39.1761 26.3065L39.1827 26.2983L39.1829 26.2982C39.2999 26.1533 39.4169 26.0084 39.5284 25.8579L39.5521 25.8258L39.5758 25.7938C39.6901 25.6405 39.8016 25.4843 39.9103 25.3255C39.9131 25.3213 39.9166 25.3164 39.9201 25.3115L39.9237 25.3064L39.9298 25.2976C40.2783 24.7819 40.5905 24.2439 40.8637 23.6808C40.886 23.6389 40.9083 23.5943 40.9278 23.5497C40.9713 23.4587 41.012 23.3663 41.0529 23.2735C41.0697 23.2355 41.0864 23.1975 41.1034 23.1595C41.1341 23.0926 41.1647 23.0229 41.1926 22.9532C41.2153 22.8981 41.237 22.8421 41.2589 22.7857C41.2747 22.745 41.2906 22.7041 41.3069 22.6633C41.3431 22.5713 41.3794 22.4793 41.4128 22.3873C41.4119 22.3878 41.4095 22.3891 41.4061 22.3911C41.4036 22.3926 41.4004 22.3945 41.3969 22.3965C41.3759 22.4089 41.3416 22.4291 41.3376 22.4291C38.5388 23.8508 35.5031 25.2363 32.3169 26.513C29.4122 27.681 26.2008 28.8323 22.9839 29.8163C22.9784 29.8191 22.931 29.8358 22.9226 29.8386C22.9338 29.8442 22.9421 29.847 22.9505 29.8525C23.1484 29.9529 23.3491 30.0449 23.5526 30.1313L23.5682 30.1384L23.5888 30.148L23.6003 30.1534C23.604 30.1551 23.6077 30.1569 23.6115 30.1586C23.616 30.1607 23.6205 30.1627 23.6251 30.1647C23.8481 30.2595 24.0711 30.3459 24.2969 30.4268L24.3167 30.4334L24.3708 30.4519C24.3847 30.4566 24.3986 30.4614 24.4127 30.4662C24.4233 30.4698 24.4339 30.4734 24.4446 30.477L24.4447 30.477C24.6343 30.5411 24.8238 30.6052 25.0133 30.6609C25.0551 30.6749 25.0968 30.686 25.1386 30.6971L25.1388 30.6972C25.3478 30.7557 25.5569 30.8115 25.766 30.8616C25.7784 30.8644 25.7901 30.8672 25.8019 30.8699L25.8022 30.87L25.815 30.873L25.8384 30.8784ZM27.4553 22.0779C25.7019 22.7358 23.9707 23.3379 22.3038 23.8731L22.301 23.8703C22.2961 23.8715 22.2917 23.8728 22.2876 23.874C22.2824 23.8756 22.2778 23.8771 22.2731 23.8787C20.8124 22.2897 19.9203 20.1712 19.9203 17.8435C19.9203 12.9178 23.9847 8.92314 28.8407 8.92314C33.6967 8.92314 37.644 12.8035 37.7555 17.6344C37.7513 17.6358 37.7478 17.6379 37.7443 17.64C37.7409 17.6421 37.7374 17.6442 37.7332 17.6456V17.679C36.2167 18.4177 34.5692 19.176 32.7685 19.9481C33.1058 19.3181 33.2981 18.6017 33.2981 17.8407C33.2981 15.382 31.2966 13.3805 28.8379 13.3805C26.3792 13.3805 24.3777 15.382 24.3777 17.8407C24.3777 19.8171 25.6712 21.4953 27.4553 22.0779Z" fill="#3785E0"/>
</svg>
