<svg width="243" height="170" viewBox="0 0 243 170" fill="none" xmlns="http://www.w3.org/2000/svg">
<g clip-path="url(#clip0_234_14220)">
<path fill-rule="evenodd" clip-rule="evenodd" d="M0.908788 145.329C0.200465 145.054 -0.130399 146.181 0.568604 146.452C1.26761 146.724 1.60779 145.601 0.908788 145.329Z" fill="#AFCEF3"/>
<path fill-rule="evenodd" clip-rule="evenodd" d="M12.9491 143.145C11.6629 142.645 11.0457 144.701 12.3226 145.197C13.5994 145.694 14.2259 143.641 12.9491 143.145Z" fill="#AFCEF3"/>
<path fill-rule="evenodd" clip-rule="evenodd" d="M21.4334 142.711C20.3336 142.283 19.8008 144.039 20.9006 144.467C22.0003 144.895 22.5331 143.138 21.4334 142.711Z" fill="#AFCEF3"/>
<path fill-rule="evenodd" clip-rule="evenodd" d="M24.2344 131.783C23.3397 131.435 22.9151 132.858 23.8005 133.202C24.6859 133.546 25.1198 132.127 24.2344 131.783Z" fill="#AFCEF3"/>
<path fill-rule="evenodd" clip-rule="evenodd" d="M29.7786 111.181C28.5577 110.707 27.971 112.656 29.192 113.131C30.4129 113.606 30.9995 111.656 29.7786 111.181Z" fill="#AFCEF3"/>
<path fill-rule="evenodd" clip-rule="evenodd" d="M35.079 130.163C33.6717 129.616 33.0006 131.866 34.3986 132.409C35.7967 132.953 36.477 130.707 35.079 130.163Z" fill="#AFCEF3"/>
<path fill-rule="evenodd" clip-rule="evenodd" d="M40.4247 120.225C39.2317 119.761 38.6596 121.674 39.8432 122.134C41.0269 122.594 41.6084 120.685 40.4247 120.225Z" fill="#AFCEF3"/>
<path fill-rule="evenodd" clip-rule="evenodd" d="M44.0416 134.872C43.4544 134.644 43.1774 135.577 43.7646 135.805C44.3517 136.033 44.6287 135.1 44.0416 134.872Z" fill="#AFCEF3"/>
<path fill-rule="evenodd" clip-rule="evenodd" d="M49.6579 126.584C48.2692 126.044 47.6126 128.256 48.992 128.793C50.3714 129.329 51.0372 127.12 49.6579 126.584Z" fill="#AFCEF3"/>
<path fill-rule="evenodd" clip-rule="evenodd" d="M48.6935 113.999C47.3048 113.459 46.6483 115.671 48.0276 116.208C49.407 116.744 50.0729 114.535 48.6935 113.999Z" fill="#AFCEF3"/>
<g clip-path="url(#clip1_234_14220)">
<path fill-rule="evenodd" clip-rule="evenodd" d="M167.83 63.39L165.1 64.85L164.25 67.83L162.01 65.68L158.91 65.8L160.26 63L159.2 60.09L162.27 60.51L164.71 58.6L165.26 61.65L167.83 63.39Z" fill="#D7E7F9"/>
<path fill-rule="evenodd" clip-rule="evenodd" d="M212.64 124.33L210.68 126.74L211.05 129.82L208.15 128.7L205.34 130L205.51 126.9L203.4 124.63L206.4 123.83L207.91 121.12L209.6 123.73L212.64 124.33Z" fill="#D7E7F9"/>
<path fill-rule="evenodd" clip-rule="evenodd" d="M20.86 117.99L18.25 119.66L17.62 122.69L15.23 120.72L12.15 121.07L13.28 118.18L12 115.36L15.09 115.55L17.38 113.46L18.16 116.46L20.86 117.99Z" fill="#D7E7F9"/>
</g>
<path fill-rule="evenodd" clip-rule="evenodd" d="M44.9322 122.429C43.6926 121.947 43.0951 123.924 44.3347 124.407C45.5742 124.889 46.1718 122.911 44.9322 122.429Z" fill="#AFCEF3"/>
<path fill-rule="evenodd" clip-rule="evenodd" d="M58.288 115.648C56.7596 115.054 56.0383 117.488 57.5574 118.079C59.0766 118.67 59.8072 116.239 58.288 115.648Z" fill="#AFCEF3"/>
<path fill-rule="evenodd" clip-rule="evenodd" d="M68.4848 113.294C66.9842 112.71 66.2681 115.104 67.7593 115.684C69.2505 116.263 69.976 113.874 68.4848 113.294Z" fill="#AFCEF3"/>
<path fill-rule="evenodd" clip-rule="evenodd" d="M59.7225 128.266C58.0356 127.61 57.2258 130.299 58.9127 130.955C60.5996 131.611 61.4094 128.922 59.7225 128.266Z" fill="#AFCEF3"/>
<path fill-rule="evenodd" clip-rule="evenodd" d="M73.3126 138.54C71.7375 137.928 70.9872 140.437 72.553 141.046C74.1188 141.654 74.8784 139.149 73.3126 138.54Z" fill="#AFCEF3"/>
<path fill-rule="evenodd" clip-rule="evenodd" d="M69.6928 124.011C68.1922 123.427 67.4761 125.82 68.9673 126.4C70.4586 126.98 71.184 124.59 69.6928 124.011Z" fill="#AFCEF3"/>
<path fill-rule="evenodd" clip-rule="evenodd" d="M68.1834 130.43C66.8693 129.919 66.2376 132.012 67.5517 132.523C68.8658 133.034 69.4975 130.941 68.1834 130.43Z" fill="#AFCEF3"/>
<path fill-rule="evenodd" clip-rule="evenodd" d="M79.118 121.184C77.9903 120.746 77.4523 122.543 78.5707 122.978C79.6891 123.413 80.2364 121.619 79.118 121.184Z" fill="#AFCEF3"/>
<path fill-rule="evenodd" clip-rule="evenodd" d="M84.4551 102.466C83.5604 102.118 83.1358 103.541 84.0212 103.885C84.9066 104.23 85.3405 102.811 84.4551 102.466Z" fill="#AFCEF3"/>
<path fill-rule="evenodd" clip-rule="evenodd" d="M90.5238 93.1524C89.6757 92.8226 89.2801 94.1709 90.1189 94.4971C90.9577 94.8233 91.3626 93.4786 90.5238 93.1524Z" fill="#AFCEF3"/>
<path fill-rule="evenodd" clip-rule="evenodd" d="M90.2013 111.418C88.6262 110.805 87.8759 113.314 89.4417 113.923C91.0074 114.532 91.767 112.027 90.2013 111.418Z" fill="#AFCEF3"/>
<path fill-rule="evenodd" clip-rule="evenodd" d="M77.3546 110.627C76.115 110.145 75.5175 112.123 76.757 112.605C77.9966 113.087 78.5941 111.11 77.3546 110.627Z" fill="#AFCEF3"/>
<path fill-rule="evenodd" clip-rule="evenodd" d="M84.5509 128.651C83.9637 128.423 83.6867 129.356 84.2738 129.584C84.861 129.813 85.138 128.88 84.5509 128.651Z" fill="#AFCEF3"/>
<path fill-rule="evenodd" clip-rule="evenodd" d="M84.7244 136.841C83.3824 136.319 82.7455 138.453 84.0782 138.972C85.411 139.49 86.0572 137.359 84.7244 136.841Z" fill="#AFCEF3"/>
<path fill-rule="evenodd" clip-rule="evenodd" d="M85.9137 143.881C84.8326 143.46 84.3236 145.183 85.3954 145.6C86.4672 146.017 86.9855 144.298 85.9137 143.881Z" fill="#AFCEF3"/>
<path fill-rule="evenodd" clip-rule="evenodd" d="M93.8124 128.509C92.3119 127.925 91.5958 130.318 93.087 130.898C94.5782 131.478 95.3036 129.088 93.8124 128.509Z" fill="#AFCEF3"/>
<path fill-rule="evenodd" clip-rule="evenodd" d="M88.4812 120.835C86.7197 120.15 85.885 122.958 87.6372 123.639C89.3893 124.321 90.2333 121.516 88.4812 120.835Z" fill="#AFCEF3"/>
<path fill-rule="evenodd" clip-rule="evenodd" d="M103.616 122.171C102.227 121.631 101.571 123.843 102.95 124.38C104.329 124.916 104.995 122.707 103.616 122.171Z" fill="#AFCEF3"/>
<path fill-rule="evenodd" clip-rule="evenodd" d="M101.357 109.136C100.024 108.617 99.378 110.748 100.711 111.266C102.044 111.785 102.69 109.654 101.357 109.136Z" fill="#AFCEF3"/>
<path fill-rule="evenodd" clip-rule="evenodd" d="M115.268 118.612C114.122 118.166 113.569 120.001 114.716 120.447C115.862 120.893 116.415 119.058 115.268 118.612Z" fill="#AFCEF3"/>
<path fill-rule="evenodd" clip-rule="evenodd" d="M113.31 109.771C111.856 109.206 111.156 111.53 112.61 112.095C114.064 112.661 114.764 110.337 113.31 109.771Z" fill="#AFCEF3"/>
<path fill-rule="evenodd" clip-rule="evenodd" d="M114.477 100.504C113.07 99.9571 112.399 102.207 113.797 102.751C115.195 103.294 115.875 101.048 114.477 100.504Z" fill="#AFCEF3"/>
<path fill-rule="evenodd" clip-rule="evenodd" d="M117.37 85.5349C115.981 84.9949 115.325 87.2073 116.704 87.7438C118.083 88.2802 118.749 86.0713 117.37 85.5349Z" fill="#AFCEF3"/>
<path fill-rule="evenodd" clip-rule="evenodd" d="M125.282 86.6269C124.415 86.2899 123.996 87.6718 124.863 88.0089C125.73 88.346 126.149 86.964 125.282 86.6269Z" fill="#AFCEF3"/>
<path fill-rule="evenodd" clip-rule="evenodd" d="M124.626 102.026C123.247 101.49 122.581 103.699 123.96 104.235C125.34 104.771 126.006 102.563 124.626 102.026Z" fill="#AFCEF3"/>
<path fill-rule="evenodd" clip-rule="evenodd" d="M122.834 121.672C121.259 121.06 120.508 123.568 122.074 124.177C123.64 124.786 124.399 122.281 122.834 121.672Z" fill="#AFCEF3"/>
<path fill-rule="evenodd" clip-rule="evenodd" d="M128.886 130.002C127.451 129.444 126.765 131.731 128.191 132.286C129.617 132.84 130.312 130.557 128.886 130.002Z" fill="#AFCEF3"/>
<path fill-rule="evenodd" clip-rule="evenodd" d="M126.873 116.28C125.158 115.613 124.343 118.343 126.049 119.006C127.754 119.67 128.579 116.943 126.873 116.28Z" fill="#AFCEF3"/>
<path fill-rule="evenodd" clip-rule="evenodd" d="M138.844 124.454C137.25 123.835 136.485 126.381 138.07 126.997C139.654 127.613 140.428 125.071 138.844 124.454Z" fill="#AFCEF3"/>
<path fill-rule="evenodd" clip-rule="evenodd" d="M133.924 115.75C132.377 115.148 131.632 117.616 133.179 118.217C134.726 118.819 135.471 116.351 133.924 115.75Z" fill="#AFCEF3"/>
<path fill-rule="evenodd" clip-rule="evenodd" d="M143.017 97.4186C142.365 97.2187 141.763 97.6071 141.527 98.2129C141.397 98.5484 141.315 98.8704 141.411 99.2298C141.582 99.8651 142.38 100.379 143.011 99.9702C143.44 99.6968 143.62 99.3701 143.802 98.9041C144.037 98.2983 143.59 97.5988 143.007 97.415L143.017 97.4186Z" fill="#AFCEF3"/>
<path fill-rule="evenodd" clip-rule="evenodd" d="M145.147 115.779C143.665 115.203 142.963 117.559 144.436 118.131C145.908 118.704 146.619 116.352 145.147 115.779Z" fill="#AFCEF3"/>
<path fill-rule="evenodd" clip-rule="evenodd" d="M150.828 113.75C149.514 113.239 148.883 115.333 150.197 115.844C151.511 116.355 152.143 114.261 150.828 113.75Z" fill="#AFCEF3"/>
<path fill-rule="evenodd" clip-rule="evenodd" d="M158.383 119.403C156.836 118.801 156.091 121.269 157.638 121.871C159.185 122.472 159.93 120.005 158.383 119.403Z" fill="#AFCEF3"/>
<path fill-rule="evenodd" clip-rule="evenodd" d="M168.045 122.205L167.616 122.039C166.991 121.796 166.346 122.049 166.168 122.645C165.957 123.325 166.444 123.729 167.068 123.971L167.487 124.135C168.112 124.377 168.758 124.124 168.936 123.528C169.146 122.848 168.66 122.445 168.035 122.202L168.045 122.205Z" fill="#AFCEF3"/>
<path fill-rule="evenodd" clip-rule="evenodd" d="M178.37 116.982C176.888 116.406 176.186 118.762 177.659 119.335C179.131 119.907 179.842 117.555 178.37 116.982Z" fill="#AFCEF3"/>
<path fill-rule="evenodd" clip-rule="evenodd" d="M183.55 104.931C182.161 104.391 181.505 106.603 182.884 107.14C184.263 107.676 184.929 105.467 183.55 104.931Z" fill="#AFCEF3"/>
<path fill-rule="evenodd" clip-rule="evenodd" d="M175.185 111.377C173.731 110.812 173.031 113.136 174.485 113.701C175.939 114.267 176.639 111.942 175.185 111.377Z" fill="#AFCEF3"/>
<path fill-rule="evenodd" clip-rule="evenodd" d="M167.025 106.037C165.879 105.591 165.327 107.425 166.473 107.871C167.619 108.317 168.172 106.482 167.025 106.037Z" fill="#AFCEF3"/>
<path fill-rule="evenodd" clip-rule="evenodd" d="M166.095 95.9859C165.582 95.7866 165.336 96.6135 165.849 96.8128C166.361 97.0122 166.617 96.1889 166.095 95.9859Z" fill="#AFCEF3"/>
<path fill-rule="evenodd" clip-rule="evenodd" d="M160.103 88.6878C158.957 88.242 158.404 90.0765 159.551 90.5223C160.697 90.9681 161.249 89.1336 160.103 88.6878Z" fill="#AFCEF3"/>
<path fill-rule="evenodd" clip-rule="evenodd" d="M157.194 94.9276C156.094 94.4999 155.561 96.2562 156.661 96.6839C157.761 97.1116 158.293 95.3553 157.194 94.9276Z" fill="#AFCEF3"/>
<path fill-rule="evenodd" clip-rule="evenodd" d="M152.226 85.0773C151.005 84.6025 150.418 86.5524 151.639 87.0272C152.86 87.502 153.447 85.5521 152.226 85.0773Z" fill="#AFCEF3"/>
<path fill-rule="evenodd" clip-rule="evenodd" d="M151.998 95.7073C150.758 95.2253 150.161 97.2032 151.4 97.6852C152.64 98.1673 153.237 96.1894 151.998 95.7073Z" fill="#AFCEF3"/>
<path fill-rule="evenodd" clip-rule="evenodd" d="M178.336 86.6369C177.663 86.2144 176.559 86.5147 176.391 87.3613C176.365 87.5119 176.329 87.659 176.303 87.8097C176.187 88.3549 176.332 88.8939 176.823 89.203C177.382 89.5598 178.175 89.3962 178.517 88.8209C178.599 88.692 178.668 88.5687 178.751 88.4398C179.116 87.8309 178.951 87.0154 178.336 86.6369Z" fill="#AFCEF3"/>
<path fill-rule="evenodd" clip-rule="evenodd" d="M184.945 88.7889C183.464 88.2126 182.758 90.5778 184.231 91.1505C185.703 91.7231 186.418 89.3615 184.945 88.7889Z" fill="#AFCEF3"/>
<path fill-rule="evenodd" clip-rule="evenodd" d="M189.665 98.0064C188.258 97.4591 187.587 99.7088 188.985 100.253C190.383 100.796 191.063 98.5501 189.665 98.0064Z" fill="#AFCEF3"/>
<path fill-rule="evenodd" clip-rule="evenodd" d="M193.936 106.116C194.017 106.019 194.079 105.914 194.123 105.802C194.218 105.474 194.121 105.2 193.926 104.985C193.824 104.86 193.706 104.749 193.52 104.677C193.225 104.552 192.93 104.426 192.636 104.301C192.627 104.297 192.617 104.294 192.608 104.29C192.589 104.283 192.561 104.272 192.543 104.265C192.421 104.218 192.299 104.202 192.178 104.209C191.915 104.224 191.702 104.356 191.563 104.549C191.482 104.646 191.407 104.757 191.369 104.881C191.27 105.219 191.373 105.505 191.565 105.73C191.663 105.865 191.8 105.982 191.99 106.045C192.018 106.056 192.036 106.064 192.055 106.071C192.064 106.074 192.074 106.078 192.083 106.082C192.385 106.188 192.677 106.291 192.979 106.398C193.091 106.442 193.214 106.457 193.325 106.447C193.576 106.437 193.788 106.305 193.914 106.118L193.936 106.116Z" fill="#AFCEF3"/>
<path fill-rule="evenodd" clip-rule="evenodd" d="M199.766 93.4152C198.667 92.9875 198.134 94.7439 199.234 95.1715C200.333 95.5992 200.866 93.8429 199.766 93.4152Z" fill="#AFCEF3"/>
<path fill-rule="evenodd" clip-rule="evenodd" d="M191.968 85.8225C190.682 85.3223 190.065 87.3784 191.351 87.8786C192.637 88.3788 193.254 86.3227 191.968 85.8225Z" fill="#AFCEF3"/>
<path fill-rule="evenodd" clip-rule="evenodd" d="M189.321 80.1041C188.24 79.6837 187.731 81.4063 188.803 81.8231C189.874 82.24 190.393 80.5209 189.321 80.1041Z" fill="#AFCEF3"/>
<path fill-rule="evenodd" clip-rule="evenodd" d="M201.474 72.6093C199.833 71.9714 199.049 74.5955 200.68 75.2298C202.311 75.8641 203.105 73.2436 201.474 72.6093Z" fill="#AFCEF3"/>
<path fill-rule="evenodd" clip-rule="evenodd" d="M201.118 84.8636C199.683 84.3055 198.997 86.5925 200.423 87.1471C201.849 87.7016 202.544 85.4182 201.118 84.8636Z" fill="#AFCEF3"/>
<path fill-rule="evenodd" clip-rule="evenodd" d="M207.845 75.0439C206.158 74.3879 205.348 77.0773 207.035 77.7333C208.722 78.3893 209.532 75.7 207.845 75.0439Z" fill="#AFCEF3"/>
<path fill-rule="evenodd" clip-rule="evenodd" d="M211.907 84.7673C210.592 84.2563 209.961 86.3497 211.275 86.8607C212.589 87.3718 213.211 85.2748 211.907 84.7673Z" fill="#AFCEF3"/>
<path fill-rule="evenodd" clip-rule="evenodd" d="M219.272 97.1703C217.696 96.5577 216.946 99.0664 218.512 99.6753C220.078 100.284 220.837 97.7792 219.272 97.1703Z" fill="#AFCEF3"/>
<path fill-rule="evenodd" clip-rule="evenodd" d="M224.258 85.644C222.926 85.1257 222.279 87.2563 223.612 87.7746C224.945 88.2929 225.591 86.1623 224.258 85.644Z" fill="#AFCEF3"/>
<path fill-rule="evenodd" clip-rule="evenodd" d="M229.129 91.9371C227.796 91.4188 227.15 93.5495 228.483 94.0678C229.816 94.5861 230.462 92.4554 229.129 91.9371Z" fill="#AFCEF3"/>
<path fill-rule="evenodd" clip-rule="evenodd" d="M236.772 83.5682C235.318 83.0028 234.618 85.3271 236.072 85.8925C237.525 86.4579 238.225 84.1336 236.772 83.5682Z" fill="#AFCEF3"/>
<path fill-rule="evenodd" clip-rule="evenodd" d="M241.797 71.9172C240.408 71.3771 239.751 73.5896 241.131 74.126C242.51 74.6625 243.176 72.4536 241.797 71.9172Z" fill="#AFCEF3"/>
<path fill-rule="evenodd" clip-rule="evenodd" d="M232.032 74.4289C230.597 73.8707 229.911 76.1577 231.337 76.7123C232.763 77.2668 233.458 74.9834 232.032 74.4289Z" fill="#AFCEF3"/>
<path fill-rule="evenodd" clip-rule="evenodd" d="M228.856 68.7732C227.402 68.2077 226.702 70.5321 228.156 71.0975C229.61 71.6629 230.31 69.3386 228.856 68.7732Z" fill="#AFCEF3"/>
<path fill-rule="evenodd" clip-rule="evenodd" d="M222.314 75.553C220.907 75.0057 220.235 77.2554 221.634 77.7991C223.032 78.3428 223.712 76.0966 222.314 75.553Z" fill="#AFCEF3"/>
</g>
<defs>
<clipPath id="clip0_234_14220">
<rect width="199.63" height="156.9" fill="white" transform="translate(56.8682) rotate(21.2507)"/>
</clipPath>
<clipPath id="clip1_234_14220">
<rect width="168" height="201" fill="white" transform="translate(12 226) rotate(-90)"/>
</clipPath>
</defs>
</svg>
