<svg width="32" height="32" viewBox="0 0 32 32" fill="none" xmlns="http://www.w3.org/2000/svg">
<path d="M16.5191 18.5315L15.2911 12.2205L16.8391 11.92L17.1336 13.4495C17.1586 13.58 17.2346 13.695 17.3446 13.7695C17.4281 13.8255 17.5256 13.855 17.6246 13.855C17.6561 13.855 17.6881 13.852 17.7196 13.8455L24.8046 12.4705C24.9346 12.4455 25.0496 12.3695 25.1241 12.2595C25.1981 12.1495 25.2256 12.0145 25.2001 11.8845L24.6101 8.85C24.6101 8.8495 24.6101 8.849 24.6101 8.8485C24.6101 8.848 24.6096 8.8475 24.6096 8.847L24.0201 5.814C23.9951 5.684 23.9186 5.569 23.8086 5.4945C23.6986 5.4205 23.5636 5.394 23.4336 5.4185L21.3971 5.817L21.1006 4.2845C21.0761 4.155 21.0001 4.04 20.8901 3.9655C20.7801 3.8915 20.6446 3.863 20.5151 3.889L13.9246 5.169L13.9046 5.0685C14.2351 4.9145 14.5226 4.68 14.7321 4.37C15.0371 3.9185 15.1486 3.3735 15.0461 2.8365C15.0461 2.836 15.0456 2.835 15.0456 2.834C14.8281 1.7295 13.7531 1.0035 12.6486 1.215C11.5386 1.4335 10.8121 2.5105 11.0291 3.617C11.1346 4.154 11.4411 4.6175 11.8921 4.922C12.2031 5.1315 12.5581 5.244 12.9236 5.263L13.0396 5.8505L14.2146 11.9205L15.5011 18.5315C7.9921 18.7535 1.6526 23.9765 -0.0123964 31.3905C-0.0458964 31.5385 -0.00989644 31.694 0.0851036 31.8125C0.179604 31.931 0.323104 32 0.475104 32H31.5251C31.6771 32 31.8206 31.931 31.9156 31.8125C32.0106 31.694 32.0466 31.5385 32.0131 31.3905C30.3496 23.9985 24.0116 18.7655 16.5191 18.5315ZM23.1351 6.497L23.5341 8.5505L22.8286 8.689C22.5576 8.7425 22.3811 9.005 22.4341 9.276C22.4811 9.5145 22.6901 9.6795 22.9241 9.6795C22.9561 9.6795 22.9886 9.6765 23.0211 9.67L23.7246 9.532L24.1236 11.584L18.0211 12.7685L17.8211 11.729L21.8801 10.941C22.0106 10.9155 22.1251 10.8395 22.1996 10.73C22.2741 10.6205 22.3016 10.485 22.2761 10.355L21.5881 6.8L23.1351 6.497ZM12.0106 3.4235C11.9566 3.1495 12.0131 2.871 12.1696 2.6395C12.3261 2.408 12.5651 2.25 12.8391 2.196C12.9051 2.1835 12.9706 2.1775 13.0351 2.1775C13.5246 2.1775 13.9646 2.5255 14.0636 3.0245C14.1156 3.3 14.0586 3.579 13.9026 3.81C13.7466 4.0405 13.5101 4.1965 13.2331 4.249C12.9576 4.3025 12.6811 4.2475 12.4511 4.0925C12.2216 3.9375 12.0651 3.6995 12.0106 3.4235ZM14.1161 6.1505L20.2141 4.9665L20.6116 7.0195L18.0701 7.5145C17.7991 7.567 17.6221 7.8295 17.6746 8.1005C17.7211 8.3395 17.9301 8.505 18.1646 8.505C18.1961 8.505 18.2281 8.502 18.2606 8.4955L20.8016 8.001L21.1991 10.054L15.1011 11.2385L14.1161 6.1505ZM19.0531 31C19.1921 30.26 19.6936 29 21.5001 29C23.3071 29 23.8086 30.261 23.9471 31H19.0531ZM24.9631 31C24.7846 29.751 23.9216 28 21.5001 28C19.0786 28 18.2156 29.751 18.0371 31H1.1126C2.9191 24.209 8.9546 19.52 16.0001 19.52H16.1031C23.0966 19.567 29.0896 24.2555 30.8871 31H24.9631Z" fill="#0E417E"/>
<path d="M15.1146 23.4885C14.8466 23.425 14.5766 23.592 14.5131 23.861C14.0216 25.9525 12.1981 25.7955 11.9886 25.7695C11.7156 25.7325 11.4656 25.9265 11.4296 26.2C11.3931 26.4735 11.5856 26.725 11.8596 26.761C11.9706 26.7755 12.0941 26.784 12.2271 26.784C13.3001 26.784 14.9811 26.2405 15.4871 24.09C15.5501 23.821 15.3836 23.5515 15.1146 23.4885Z" fill="#0E417E"/>
<path d="M12.8531 25.2485C13.9586 24.8 14.5351 23.636 14.1391 22.654C13.9646 22.216 13.6166 21.8665 13.1601 21.671C12.6256 21.442 11.9891 21.4435 11.4146 21.676C10.8416 21.905 10.3821 22.3425 10.1546 22.876C9.9591 23.3345 9.9491 23.8285 10.1266 24.2675C10.4186 24.99 11.1581 25.4195 11.9706 25.4195C12.2611 25.4195 12.5611 25.3645 12.8531 25.2485ZM11.0536 23.8925C10.9546 23.6485 11.0101 23.418 11.0741 23.268C11.1981 22.977 11.4576 22.735 11.7871 22.603C11.9586 22.534 12.1371 22.499 12.3096 22.499C12.4701 22.499 12.6256 22.529 12.7661 22.589C12.9151 22.653 13.1136 22.78 13.2106 23.024C13.2106 23.025 13.2116 23.0265 13.2116 23.0265C13.4021 23.4985 13.0726 24.079 12.4806 24.3195C11.8836 24.5575 11.2446 24.365 11.0536 23.8925Z" fill="#0E417E"/>
<path d="M23.9516 22.397C22.6291 21.564 21.5191 21.088 20.8201 20.8345C20.8191 20.8345 20.8181 20.834 20.8166 20.8335C20.4301 20.697 19.9996 20.72 19.6346 20.897C19.2956 21.061 19.0441 21.3425 18.9256 21.692C18.7251 22.2935 18.8381 23.183 20.5131 24.008C21.6751 24.5845 22.4196 25.289 23.0181 25.8555C23.5466 26.3555 24.0531 26.8345 24.6221 26.8345C24.8146 26.8345 25.0146 26.7795 25.2251 26.652C25.7371 26.341 26.0336 25.8245 26.0381 25.2345C26.0416 24.6675 25.7766 23.5445 23.9516 22.397ZM24.7056 25.7975C24.5511 25.8915 24.3311 25.7215 23.7056 25.1295C23.0926 24.5495 22.2536 23.755 20.9561 23.1115C20.5816 22.927 19.7271 22.4505 19.8731 22.011C19.9131 21.894 20.0026 21.83 20.0706 21.7965C20.1411 21.7625 20.2211 21.745 20.3011 21.745C20.3621 21.745 20.4236 21.755 20.4811 21.775C21.1336 22.0115 22.1721 22.458 23.4186 23.243C24.4366 23.883 25.0421 24.6245 25.0371 25.2265C25.0356 25.473 24.9241 25.665 24.7056 25.7975Z" fill="#0E417E"/>
<path d="M8.5086 26.068C8.5676 25.2925 8.2481 24.824 7.9691 24.5675C7.6466 24.2695 7.2256 24.1235 6.7781 24.1515C6.3151 24.183 5.8796 24.407 5.5846 24.766L4.4721 26.113C4.0696 26.593 3.9726 27.256 4.2206 27.8455C4.7331 29.046 5.6086 30.481 6.8676 30.4995C6.8866 30.4995 6.9056 30.5 6.9241 30.5C8.0901 30.5 8.7641 29.9555 9.0626 29.6285C9.2461 29.429 9.3741 29.194 9.4306 28.953C9.6366 28.1095 9.3706 27.2455 8.6856 26.5235C8.5631 26.3925 8.4986 26.224 8.5086 26.068ZM8.4586 28.72C8.4401 28.798 8.3951 28.878 8.3261 28.9525C8.0921 29.209 7.6616 29.52 6.8821 29.5C6.3351 29.492 5.6836 28.727 5.1411 27.4565C5.0406 27.2165 5.0776 26.948 5.2406 26.7535L6.3561 25.4025C6.4776 25.2545 6.6561 25.1625 6.8456 25.1495C6.8606 25.1485 6.8751 25.148 6.8896 25.148C7.0416 25.148 7.1821 25.2015 7.2896 25.3015C7.2901 25.302 7.2911 25.3025 7.2916 25.303C7.4626 25.46 7.5346 25.6855 7.5106 25.9975C7.4826 26.433 7.6441 26.8735 7.9571 27.2085C8.2731 27.5415 8.6161 28.0735 8.4586 28.72Z" fill="#0E417E"/>
<path d="M24.9991 16.15C24.9986 16.15 24.9971 16.15 24.9971 16.15H24.9951C24.7201 16.1545 24.5001 16.3765 24.5001 16.65C24.5001 16.924 24.7206 17.147 24.9946 17.15C25.0776 17.1525 26.7501 17.243 26.7501 20.25C26.7501 20.526 26.9741 20.75 27.2501 20.75C27.5261 20.75 27.7501 20.526 27.7501 20.25C27.7501 20.219 27.7701 17.15 29.5001 17.15H29.5056C29.7781 17.1455 29.9981 16.9235 29.9981 16.65C29.9981 16.375 29.7766 16.152 29.5021 16.15C29.3201 16.146 27.7501 16.0365 27.7501 13.5C27.7501 13.4995 27.7501 13.4985 27.7501 13.498C27.7501 13.4975 27.7501 13.497 27.7501 13.496C27.7501 13.495 27.7501 13.4965 27.7501 13.496C27.7501 13.4945 27.7501 13.4925 27.7501 13.4905C27.7501 13.4895 27.7501 13.488 27.7501 13.4865C27.7421 13.2165 27.5211 13 27.2501 13C26.9746 13 26.7506 13.223 26.7501 13.499C26.7496 13.6075 26.7201 16.15 24.9991 16.15C24.9996 16.15 24.9986 16.15 24.9991 16.15ZM27.2381 15.71C27.4721 16.133 27.7661 16.431 28.0636 16.6425C27.7061 16.9355 27.4461 17.332 27.2566 17.755C27.0191 17.277 26.7211 16.942 26.4201 16.706C26.7711 16.448 27.0386 16.097 27.2381 15.71Z" fill="#0E417E"/>
<path d="M7.58512 0.4975C7.58512 0.4965 7.58512 0.4955 7.58512 0.4945V0.493C7.58512 0.493 7.58512 0.492 7.58512 0.4915C7.57962 0.219 7.35812 0 7.08512 0C6.80962 0 6.58562 0.223 6.58512 0.4985C6.58512 0.5785 6.56212 2.4495 5.33512 2.4495C5.05912 2.4495 4.83512 2.6735 4.83512 2.9495C4.83512 3.2255 5.05912 3.4495 5.33512 3.4495C5.34762 3.4495 6.58512 3.476 6.58512 5.7495C6.58512 6.0255 6.80912 6.2495 7.08512 6.2495C7.36112 6.2495 7.58512 6.0255 7.58512 5.7495C7.58512 5.7265 7.61912 3.4495 8.83512 3.4495H8.84062C9.11312 3.445 9.33263 3.223 9.33263 2.9495C9.33263 2.675 9.11162 2.4525 8.83812 2.4495C8.70662 2.446 7.58512 2.3565 7.58512 0.5C7.58512 0.4995 7.58512 0.4985 7.58512 0.4975ZM7.08362 3.565C6.94212 3.3295 6.78162 3.1435 6.61612 2.997C6.80062 2.839 6.95312 2.649 7.07862 2.4415C7.21862 2.653 7.37862 2.8205 7.54312 2.9525C7.35962 3.126 7.20812 3.3355 7.08362 3.565Z" fill="#0E417E"/>
<path d="M2.1176 11.7295C1.4446 12.08 0.110103 12.865 0.415603 13.847C0.581103 14.4065 1.2346 14.695 2.3176 14.695C2.4356 14.695 2.5701 14.684 2.6986 14.677C3.3381 15.4915 4.3186 15.9605 5.3356 15.9605C5.6556 15.9605 5.9791 15.9145 6.2956 15.8185C7.6276 15.412 8.5516 14.2125 8.6421 12.854C9.7581 12.184 10.2346 11.533 10.0426 10.9175C9.8006 10.1335 8.5736 10.041 7.5076 10.1175C6.6476 9.3675 5.4646 9.102 4.3541 9.4365C3.2591 9.77 2.4261 10.637 2.1176 11.7295ZM2.0106 12.955C2.0321 13.174 2.0691 13.392 2.1331 13.6045C2.1426 13.6345 2.1561 13.661 2.1666 13.6905C1.7086 13.6755 1.4676 13.598 1.3831 13.546C1.4111 13.478 1.5356 13.2725 2.0106 12.955ZM6.0051 14.8615C5.3031 15.073 4.5571 14.931 3.9786 14.525C4.5431 14.4245 5.1386 14.2845 5.7501 14.0985C6.3766 13.9085 6.9656 13.685 7.5056 13.4425C7.2551 14.107 6.7131 14.6455 6.0051 14.8615ZM8.5361 11.731C8.5286 11.705 8.5256 11.6785 8.5176 11.6525C8.4586 11.4605 8.3771 11.2775 8.2846 11.1005C8.6846 11.1175 8.9381 11.178 9.0561 11.233C9.0016 11.3275 8.8501 11.502 8.5361 11.731ZM5.3261 10.293C5.9411 10.293 6.5396 10.5355 6.9841 10.986L6.9866 10.9885C7.2516 11.2535 7.4506 11.585 7.5631 11.95C7.5961 12.056 7.6201 12.162 7.6366 12.2695C7.0106 12.5945 6.2556 12.9005 5.4596 13.142C4.6636 13.384 3.8981 13.547 3.2141 13.6295C3.1661 13.528 3.1236 13.4215 3.0891 13.311C2.9781 12.943 2.9581 12.5485 3.0306 12.174C3.2006 11.3275 3.8196 10.645 4.6446 10.394C4.8696 10.326 5.0991 10.293 5.3261 10.293Z" fill="#0E417E"/>
</svg>
